Trimmed_running_0600000001_forces_filt20Hz.mot
version=1
nRows=48
nColumns=19
inDegrees=yes
endheader
time	R_ground_force_vx	R_ground_force_vy	R_ground_force_vz	R_ground_force_px	R_ground_force_py	R_ground_force_pz	R_ground_torque_x	R_ground_torque_y	R_ground_torque_z	L_ground_force_vx	L_ground_force_vy	L_ground_force_vz	L_ground_force_px	L_ground_force_py	L_ground_force_pz	L_ground_torque_x	L_ground_torque_y	L_ground_torque_z	
0.000000	  0.000000	  0.000000	  0.000000	  1.339583	  0.000000	 -0.143000	  0.000000	  0.000000	  0.000000	  0.000000	  0.000000	  0.000000	  0.508302	  0.000000	 -0.167458	  0.000000	  0.000000	  0.000000
0.000500	  0.000000	  0.000000	  0.000000	  1.341700	 -0.000000	 -0.142883	  0.000000	  0.000000	  0.000000	  0.000000	  0.000000	  0.000000	  0.506607	 -0.000000	 -0.169154	  0.000000	  0.000000	  0.000000
0.001000	  0.000000	  0.000000	  0.000000	  1.343818	 -0.000000	 -0.142767	  0.000000	  0.000000	  0.000000	  0.000000	  0.000000	  0.000000	  0.504912	 -0.000000	 -0.170850	  0.000000	  0.000000	  0.000000
0.001500	  0.000000	  0.000000	  0.000000	  1.345935	 -0.000000	 -0.142650	  0.000000	  0.000000	  0.000000	  0.000000	  0.000000	  0.000000	  0.503217	 -0.000000	 -0.172546	  0.000000	  0.000000	  0.000000
0.002000	  0.000000	  0.000000	  0.000000	  1.348052	 -0.000000	 -0.142534	  0.000000	  0.000000	  0.000000	  0.000000	  0.000000	  0.000000	  0.501522	 -0.000000	 -0.174242	  0.000000	  0.000000	  0.000000
0.002500	  0.000000	  0.000000	  0.000000	  1.350170	  0.000000	 -0.142417	  0.000000	  0.000000	  0.000000	  0.000000	  0.000000	  0.000000	  0.499828	  0.000000	 -0.175938	  0.000000	  0.000000	  0.000000
0.003000	  0.000000	  0.000000	  0.000000	  1.352287	  0.000000	 -0.142300	  0.000000	  0.000000	  0.000000	  0.000000	  0.000000	  0.000000	  0.498133	  0.000000	 -0.177634	  0.000000	  0.000000	  0.000000
0.003500	  0.000000	  0.000000	  0.000000	  1.354404	  0.000000	 -0.142184	  0.000000	  0.000000	  0.000000	  0.000000	  0.000000	  0.000000	  0.496438	  0.000000	 -0.179330	  0.000000	  0.000000	  0.000000
0.004000	  0.000000	  0.000000	  0.000000	  1.356521	  0.000000	 -0.142067	  0.000000	  0.000000	  0.000000	  0.000000	  0.000000	  0.000000	  0.494743	  0.000000	 -0.181026	  0.000000	  0.000000	  0.000000
0.004500	  0.000000	  0.000000	  0.000000	  1.358639	  0.000000	 -0.141951	  0.000000	  0.000000	  0.000000	  0.000000	  0.000000	  0.000000	  0.493048	  0.000000	 -0.182722	  0.000000	  0.000000	  0.000000
0.005000	  0.000000	  0.000000	  0.000000	  1.360756	  0.000000	 -0.141834	  0.000000	  0.000000	  0.000000	  0.000000	  0.000000	  0.000000	  0.491353	  0.000000	 -0.184418	  0.000000	  0.000000	  0.000000
0.005500	  0.000000	  0.000000	  0.000000	  1.362733	  0.000000	 -0.141804	  0.000000	  0.000000	  0.000000	  0.000000	  0.000000	  0.000000	  0.489724	  0.000000	 -0.186187	  0.000000	  0.000000	  0.000000
0.006000	  0.000000	  0.000000	  0.000000	  1.364709	  0.000000	 -0.141773	  0.000000	  0.000000	  0.000000	  0.000000	  0.000000	  0.000000	  0.488094	  0.000000	 -0.187955	  0.000000	  0.000000	  0.000000
0.006500	  0.000000	  0.000000	  0.000000	  1.366686	  0.000000	 -0.141743	  0.000000	  0.000000	  0.000000	  0.000000	  0.000000	  0.000000	  0.486465	  0.000000	 -0.189724	  0.000000	  0.000000	  0.000000
0.007000	  0.000000	  0.000000	  0.000000	  1.368662	  0.000000	 -0.141712	  0.000000	  0.000000	  0.000000	  0.000000	  0.000000	  0.000000	  0.484836	  0.000000	 -0.191493	  0.000000	  0.000000	  0.000000
0.007500	  0.000000	  0.000000	  0.000000	  1.370639	  0.000000	 -0.141682	  0.000000	  0.000000	  0.000000	  0.000000	  0.000000	  0.000000	  0.483207	  0.000000	 -0.193261	  0.000000	  0.000000	  0.000000
0.008000	  0.000000	  0.000000	  0.000000	  1.372616	  0.000000	 -0.141651	  0.000000	  0.000000	  0.000000	  0.000000	  0.000000	  0.000000	  0.481577	  0.000000	 -0.195030	  0.000000	  0.000000	  0.000000
0.008500	  0.000000	  0.000000	  0.000000	  1.374592	  0.000000	 -0.141620	  0.000000	  0.000000	  0.000000	  0.000000	  0.000000	  0.000000	  0.479948	  0.000000	 -0.196799	  0.000000	  0.000000	  0.000000
0.009000	  0.000000	  0.000000	  0.000000	  1.376569	  0.000000	 -0.141590	  0.000000	  0.000000	  0.000000	  0.000000	  0.000000	  0.000000	  0.478319	  0.000000	 -0.198568	  0.000000	  0.000000	  0.000000
0.009500	  0.000000	  0.000000	  0.000000	  1.378545	  0.000000	 -0.141559	  0.000000	  0.000000	  0.000000	  0.000000	  0.000000	  0.000000	  0.476689	  0.000000	 -0.200336	  0.000000	  0.000000	  0.000000
0.010000	  0.000000	  0.000000	  0.000000	  1.380522	  0.000000	 -0.141529	  0.000000	  0.000000	  0.000000	  0.000000	  0.000000	  0.000000	  0.475060	  0.000000	 -0.202105	  0.000000	  0.000000	  0.000000
0.010500	  0.000000	  0.000000	  0.000000	  1.382359	  0.000000	 -0.141629	  0.000000	  0.000000	  0.000000	  0.000000	  0.000000	  0.000000	  0.473608	  0.000000	 -0.203996	  0.000000	  0.000000	  0.000000
0.011000	  0.000000	  0.000000	  0.000000	  1.384196	  0.000000	 -0.141729	  0.000000	  0.000000	  0.000000	  0.000000	  0.000000	  0.000000	  0.472156	  0.000000	 -0.205887	  0.000000	  0.000000	  0.000000
0.011500	  0.000000	  0.000000	  0.000000	  1.386032	  0.000000	 -0.141829	  0.000000	  0.000000	  0.000000	  0.000000	  0.000000	  0.000000	  0.470704	  0.000000	 -0.207778	  0.000000	  0.000000	  0.000000
0.012000	  0.000000	  0.000000	  0.000000	  1.387869	  0.000000	 -0.141929	  0.000000	  0.000000	  0.000000	  0.000000	  0.000000	  0.000000	  0.469252	  0.000000	 -0.209669	  0.000000	  0.000000	  0.000000
0.012500	  0.000000	  0.000000	  0.000000	  1.389706	  0.000000	 -0.142029	  0.000000	  0.000000	  0.000000	  0.000000	  0.000000	  0.000000	  0.467800	  0.000000	 -0.211560	  0.000000	  0.000000	  0.000000
0.013000	  0.000000	  0.000000	  0.000000	  1.391543	  0.000000	 -0.142129	  0.000000	  0.000000	  0.000000	  0.000000	  0.000000	  0.000000	  0.466348	  0.000000	 -0.213450	  0.000000	  0.000000	  0.000000
0.013500	  0.000000	  0.000000	  0.000000	  1.393380	  0.000000	 -0.142229	  0.000000	  0.000000	  0.000000	  0.000000	  0.000000	  0.000000	  0.464896	  0.000000	 -0.215341	  0.000000	  0.000000	  0.000000
0.014000	  0.000000	  0.000000	  0.000000	  1.395216	  0.000000	 -0.142329	  0.000000	  0.000000	  0.000000	  0.000000	  0.000000	  0.000000	  0.463444	  0.000000	 -0.217232	  0.000000	  0.000000	  0.000000
0.014500	  0.000000	  0.000000	  0.000000	  1.397053	  0.000000	 -0.142429	  0.000000	  0.000000	  0.000000	  0.000000	  0.000000	  0.000000	  0.461992	  0.000000	 -0.219123	  0.000000	  0.000000	  0.000000
0.015000	  0.000000	  0.000000	  0.000000	  1.398890	  0.000000	 -0.142529	  0.000000	  0.000000	  0.000000	  0.000000	  0.000000	  0.000000	  0.460540	  0.000000	 -0.221014	  0.000000	  0.000000	  0.000000
0.015500	  0.000000	  0.000000	  0.000000	  1.400485	  0.000000	 -0.142675	  0.000000	  0.000000	  0.000000	  0.000000	  0.000000	  0.000000	  0.459220	  0.000000	 -0.223013	  0.000000	  0.000000	  0.000000
0.016000	  0.000000	  0.000000	  0.000000	  1.402080	  0.000000	 -0.142821	  0.000000	  0.000000	  0.000000	  0.000000	  0.000000	  0.000000	  0.457900	  0.000000	 -0.225012	  0.000000	  0.000000	  0.000000
0.016500	  0.000000	  0.000000	  0.000000	  1.403675	  0.000000	 -0.142967	  0.000000	  0.000000	  0.000000	  0.000000	  0.000000	  0.000000	  0.456579	  0.000000	 -0.227011	  0.000000	  0.000000	  0.000000
0.017000	  0.000000	  0.000000	  0.000000	  1.405270	  0.000000	 -0.143113	  0.000000	  0.000000	  0.000000	  0.000000	  0.000000	  0.000000	  0.455259	  0.000000	 -0.229010	  0.000000	  0.000000	  0.000000
0.017500	  0.000000	  0.000000	  0.000000	  1.406865	  0.000000	 -0.143259	  0.000000	  0.000000	  0.000000	  0.000000	  0.000000	  0.000000	  0.453939	  0.000000	 -0.231009	  0.000000	  0.000000	  0.000000
0.018000	  0.000000	  0.000000	  0.000000	  1.408461	  0.000000	 -0.143405	  0.000000	  0.000000	  0.000000	  0.000000	  0.000000	  0.000000	  0.452619	  0.000000	 -0.233008	  0.000000	  0.000000	  0.000000
0.018500	  0.000000	  0.000000	  0.000000	  1.410056	  0.000000	 -0.143551	  0.000000	  0.000000	  0.000000	  0.000000	  0.000000	  0.000000	  0.451299	  0.000000	 -0.235007	  0.000000	  0.000000	  0.000000
0.019000	  0.000000	  0.000000	  0.000000	  1.411651	  0.000000	 -0.143697	  0.000000	  0.000000	  0.000000	  0.000000	  0.000000	  0.000000	  0.449978	  0.000000	 -0.237006	  0.000000	  0.000000	  0.000000
0.019500	  0.000000	  0.000000	  0.000000	  1.413246	  0.000000	 -0.143843	  0.000000	  0.000000	  0.000000	  0.000000	  0.000000	  0.000000	  0.448658	  0.000000	 -0.239005	  0.000000	  0.000000	  0.000000
0.020000	  0.000000	  0.000000	  0.000000	  1.414841	  0.000000	 -0.143989	  0.000000	  0.000000	  0.000000	  0.000000	  0.000000	  0.000000	  0.447338	  0.000000	 -0.241004	  0.000000	  0.000000	  0.000000
0.020500	  0.000000	  0.000000	  0.000000	  1.416210	  0.000000	 -0.144210	  0.000000	  0.000000	  0.000000	  0.000000	  0.000000	  0.000000	  0.446179	  0.000000	 -0.243012	  0.000000	  0.000000	  0.000000
0.021000	  0.000000	  0.000000	  0.000000	  1.417580	  0.000000	 -0.144430	  0.000000	  0.000000	  0.000000	  0.000000	  0.000000	  0.000000	  0.445020	  0.000000	 -0.245020	  0.000000	  0.000000	  0.000000
0.021500	  0.000000	  0.000000	  0.000000	  1.418949	  0.000000	 -0.144651	  0.000000	  0.000000	  0.000000	  0.000000	  0.000000	  0.000000	  0.443861	  0.000000	 -0.247028	  0.000000	  0.000000	  0.000000
0.022000	  0.000000	  0.000000	  0.000000	  1.420319	  0.000000	 -0.144871	  0.000000	  0.000000	  0.000000	  0.000000	  0.000000	  0.000000	  0.442702	  0.000000	 -0.249036	  0.000000	  0.000000	  0.000000
0.022500	  0.000000	  0.000000	  0.000000	  1.421688	  0.000000	 -0.145092	  0.000000	  0.000000	  0.000000	  0.000000	  0.000000	  0.000000	  0.441543	  0.000000	 -0.251045	  0.000000	  0.000000	  0.000000
0.023000	  0.000000	  0.000000	  0.000000	  1.423057	  0.000000	 -0.145313	  0.000000	  0.000000	  0.000000	  0.000000	  0.000000	  0.000000	  0.440383	  0.000000	 -0.253053	  0.000000	  0.000000	  0.000000
0.023500	  0.000000	  0.000000	  0.000000	  1.424427	  0.000000	 -0.145533	  0.000000	  0.000000	  0.000000	  0.000000	  0.000000	  0.000000	  0.439224	  0.000000	 -0.255061	  0.000000	  0.000000	  0.000000
